<svg width="241" height="128" viewBox="0 0 241 128" fill="none" xmlns="http://www.w3.org/2000/svg">
<path d="M2.77884 16.9262L10.0963 1.07956L15.6364 3.63781C16.7403 4.14756 17.5627 4.75884 18.1034 5.47166C18.6466 6.17932 18.9458 6.93396 19.0012 7.73558C19.059 8.53204 18.9093 9.31715 18.552 10.0909C18.2375 10.7718 17.8567 11.2781 17.4094 11.6098C16.9672 11.9438 16.4906 12.1493 15.9795 12.2262C15.4735 12.3055 14.9649 12.3022 14.4538 12.2164L14.3824 12.3711C14.853 12.626 15.2618 13.0213 15.609 13.5571C15.9561 14.0929 16.1613 14.7259 16.2247 15.4561C16.2881 16.1863 16.1268 16.9692 15.7409 17.8049C15.3741 18.5993 14.8636 19.2303 14.2096 19.6981C13.5555 20.1658 12.7532 20.4055 11.8028 20.4173C10.8524 20.429 9.75301 20.1466 8.50467 19.5702L2.77884 16.9262ZM5.48382 16.11L9.29073 17.8679C10.5442 18.4467 11.546 18.6152 12.2961 18.3733C13.0537 18.1286 13.5933 17.658 13.9148 16.9616C14.1626 16.4252 14.2545 15.8668 14.1907 15.2866C14.1293 14.7013 13.909 14.1552 13.5297 13.6484C13.1528 13.1364 12.6188 12.7208 11.9275 12.4016L8.02779 10.6008L5.48382 16.11ZM8.79955 8.92951L12.3589 10.5731C12.9366 10.8399 13.51 10.967 14.0791 10.9544C14.6533 10.9442 15.1724 10.7958 15.6363 10.5094C16.1054 10.2254 16.4686 9.80479 16.7259 9.24768C17.0475 8.5513 17.0777 7.84871 16.8168 7.13991C16.5582 6.42596 15.9027 5.82601 14.8504 5.34009L11.2292 3.66793L8.79955 8.92951ZM26.4365 21.9552L29.6808 14.9294L31.5069 15.7727L26.0188 27.6576L24.1927 26.8144L25.1217 24.8026L24.9979 24.7455C24.4406 25.2204 23.7703 25.5336 22.9869 25.685C22.2059 25.8313 21.3666 25.6972 20.4691 25.2827C19.7263 24.9397 19.141 24.4723 18.7133 23.8806C18.288 23.2837 18.0628 22.5788 18.0375 21.7661C18.0147 20.9482 18.2367 20.0338 18.7035 19.0227L22.1908 11.4708L24.0169 12.314L20.5868 19.7421C20.1866 20.6087 20.1099 21.4119 20.3566 22.1517C20.6084 22.8938 21.1135 23.4399 21.8718 23.7901C22.3257 23.9997 22.841 24.0968 23.4176 24.0815C23.9994 24.0685 24.5609 23.896 25.1023 23.5639C25.6488 23.2343 26.0935 22.698 26.4365 21.9552ZM42.0409 23.8662L40.1861 23.573C40.2092 23.252 40.1797 22.9161 40.0976 22.5652C40.0231 22.2117 39.8549 21.8711 39.593 21.5437C39.3312 21.2163 38.9346 20.9299 38.4033 20.6845C37.6759 20.3487 36.9924 20.2364 36.3527 20.3478C35.7205 20.4564 35.2865 20.7661 35.0507 21.2768C34.8411 21.7307 34.8406 22.1654 35.0493 22.581C35.2579 22.9965 35.6725 23.4539 36.2931 23.9533L37.8572 25.2012C38.8007 25.9498 39.4103 26.7101 39.686 27.482C39.964 28.2487 39.9113 29.0473 39.5278 29.8778C39.2133 30.5587 38.7362 31.0769 38.0965 31.4324C37.4619 31.7902 36.7249 31.9631 35.8856 31.951C35.0463 31.9389 34.165 31.7197 33.2416 31.2933C32.0294 30.7336 31.1476 30.0072 30.5961 29.1142C30.0447 28.2212 29.8967 27.2204 30.152 26.1117L32.0854 26.4787C31.9551 27.1946 32.0456 27.8184 32.357 28.3502C32.6736 28.8844 33.2059 29.3242 33.9538 29.6696C34.805 30.0626 35.5641 30.1941 36.2312 30.0641C36.9059 29.9313 37.3611 29.6095 37.5969 29.0989C37.7875 28.6862 37.8026 28.2739 37.6424 27.8619C37.4845 27.4448 37.1386 27.0285 36.6045 26.6129L34.838 25.234C33.8687 24.4734 33.2538 23.7045 32.9932 22.927C32.7402 22.1468 32.803 21.3466 33.1818 20.5264C33.4914 19.8558 33.9536 19.3495 34.5684 19.0076C35.1883 18.668 35.8937 18.5024 36.6846 18.5109C37.4807 18.5218 38.2965 18.7202 39.1322 19.106C40.3083 19.6491 41.1125 20.3334 41.5449 21.1589C41.9825 21.9868 42.1478 22.8893 42.0409 23.8662ZM40.7473 34.4588L46.2354 22.5738L48.0615 23.4171L42.5734 35.302L40.7473 34.4588ZM48.0786 21.0218C47.7227 20.8574 47.4717 20.5945 47.3258 20.2329C47.185 19.8738 47.1932 19.524 47.3504 19.1835C47.5076 18.843 47.7685 18.61 48.1333 18.4842C48.5031 18.3609 48.866 18.3814 49.222 18.5457C49.5779 18.7101 49.8263 18.9719 49.9671 19.331C50.113 19.6926 50.1074 20.0436 49.9502 20.384C49.793 20.7245 49.5295 20.9564 49.1596 21.0797C48.7949 21.2055 48.4345 21.1861 48.0786 21.0218ZM51.0455 30.5401L47.744 37.6897L45.918 36.8465L51.4061 24.9615L53.1702 25.7761L52.3127 27.6332L52.4675 27.7046C53.0247 27.2297 53.6716 26.9402 54.4082 26.8359C55.1471 26.7265 55.9653 26.8791 56.8629 27.2935C57.6676 27.6651 58.2955 28.1553 58.7466 28.7642C59.2001 29.3678 59.4408 30.0798 59.4688 30.9001C59.4992 31.7152 59.281 32.6283 58.8141 33.6393L55.3269 41.1912L53.5008 40.348L56.9309 32.9199C57.362 31.9862 57.4555 31.1469 57.2111 30.402C56.9692 29.652 56.4253 29.0816 55.5793 28.691C54.9964 28.4218 54.417 28.3076 53.8412 28.3484C53.2706 28.3915 52.7417 28.5948 52.2547 28.9582C51.7678 29.3216 51.3647 29.8489 51.0455 30.5401ZM63.5324 45.2807C62.3873 44.7519 61.5162 44.043 60.9191 43.1539C60.3296 42.2621 60.0212 41.2561 59.994 40.1358C59.9744 39.0128 60.2457 37.8426 60.8078 36.6252C61.37 35.4078 62.0872 34.4373 62.9596 33.7136C63.8395 32.9872 64.7996 32.5481 65.8397 32.3963C66.8874 32.2417 67.9477 32.4121 69.0206 32.9076C69.6396 33.1934 70.2033 33.5789 70.7115 34.0639C71.2198 34.5489 71.6143 35.1379 71.8952 35.8308C72.1784 36.5186 72.2919 37.3095 72.2358 38.2036C72.1797 39.0976 71.8955 40.0992 71.3834 41.2083L71.0261 41.982L61.8648 37.7516L62.5937 36.1731L69.898 39.546C70.2076 38.8754 70.3498 38.2151 70.3246 37.5651C70.3044 36.9175 70.1196 36.3283 69.7701 35.7977C69.4258 35.2694 68.9234 34.8529 68.2632 34.548C67.5358 34.2121 66.8231 34.102 66.1251 34.2178C65.4346 34.3308 64.8152 34.608 64.2671 35.0496C63.719 35.4912 63.2937 36.0395 62.9912 36.6946L62.5053 37.747C62.0908 38.6445 61.8942 39.4768 61.9155 40.2439C61.9443 41.0082 62.1623 41.6815 62.5693 42.2638C62.9787 42.8408 63.5523 43.2997 64.2899 43.6403C64.7696 43.8618 65.2339 43.9949 65.6827 44.0394C66.1391 44.0811 66.5722 44.0308 66.9822 43.8884C67.3945 43.7409 67.7734 43.4965 68.1187 43.1553L69.6542 44.4651C69.1922 44.9778 68.6371 45.3598 67.989 45.6113C67.3433 45.8576 66.6397 45.9583 65.8782 45.9133C65.1191 45.8631 64.3372 45.6523 63.5324 45.2807ZM84.0232 43.2524L82.1685 42.9591C82.1915 42.6381 82.162 42.3022 82.08 41.9514C82.0054 41.5978 81.8372 41.2573 81.5754 40.9298C81.3135 40.6024 80.917 40.316 80.3856 40.0706C79.6583 39.7348 78.9748 39.6225 78.3351 39.7339C77.7029 39.8425 77.2689 40.1522 77.0331 40.6629C76.8234 41.1168 76.823 41.5516 77.0316 41.9671C77.2403 42.3826 77.6549 42.84 78.2754 43.3394L79.8395 44.5873C80.7831 45.3359 81.3927 46.0962 81.6683 46.8681C81.9463 47.6348 81.8936 48.4334 81.5101 49.2639C81.1957 49.9449 80.7186 50.463 80.0788 50.8185C79.4442 51.1763 78.7073 51.3492 77.868 51.3371C77.0287 51.3251 76.1473 51.1058 75.224 50.6795C74.0117 50.1197 73.1299 49.3933 72.5785 48.5003C72.0271 47.6073 71.879 46.6065 72.1344 45.4978L74.0677 45.8648C73.9374 46.5807 74.028 47.2045 74.3394 47.7364C74.656 48.2706 75.1882 48.7104 75.9362 49.0557C76.7873 49.4488 77.5465 49.5803 78.2136 49.4502C78.8882 49.3174 79.3434 48.9957 79.5793 48.485C79.7698 48.0723 79.785 47.66 79.6247 47.2481C79.4669 46.831 79.1209 46.4146 78.5869 45.999L76.8204 44.6201C75.8511 43.8596 75.2361 43.0906 74.9756 42.3131C74.7225 41.5329 74.7854 40.7327 75.1641 39.9125C75.4738 39.2419 75.936 38.7356 76.5507 38.3937C77.1707 38.0541 77.8761 37.8886 78.667 37.897C79.463 37.9079 80.2789 38.1063 81.1145 38.4922C82.2906 39.0353 83.0949 39.7196 83.5273 40.5451C83.9648 41.3729 84.1302 42.2754 84.0232 43.2524ZM95.4072 48.5091L93.5524 48.2159C93.5755 47.8949 93.546 47.5589 93.4639 47.2081C93.3894 46.8545 93.2212 46.514 92.9594 46.1866C92.6975 45.8591 92.3009 45.5727 91.7696 45.3274C91.0423 44.9915 90.3587 44.8793 89.719 44.9907C89.0868 45.0993 88.6528 45.4089 88.417 45.9196C88.2074 46.3736 88.2069 46.8083 88.4156 47.2238C88.6242 47.6394 89.0389 48.0968 89.6594 48.5961L91.2235 49.8441C92.167 50.5927 92.7766 51.3529 93.0523 52.1248C93.3303 52.8916 93.2776 53.6902 92.8941 54.5207C92.5797 55.2016 92.1026 55.7198 91.4628 56.0752C90.8282 56.4331 90.0912 56.6059 89.2519 56.5939C88.4126 56.5818 87.5313 56.3626 86.6079 55.9362C85.3957 55.3764 84.5139 54.6501 83.9625 53.7571C83.411 52.8641 83.263 51.8633 83.5184 50.7545L85.4517 51.1216C85.3214 51.8374 85.4119 52.4613 85.7234 52.9931C86.0399 53.5273 86.5722 53.9671 87.3202 54.3125C88.1713 54.7055 88.9304 54.837 89.5975 54.707C90.2722 54.5742 90.7274 54.2524 90.9632 53.7417C91.1538 53.3291 91.1689 52.9168 91.0087 52.5048C90.8508 52.0877 90.5049 51.6714 89.9708 51.2558L88.2044 49.8768C87.235 49.1163 86.6201 48.3473 86.3595 47.5699C86.1065 46.7897 86.1693 45.9894 86.5481 45.1693C86.8577 44.4987 87.3199 43.9924 87.9347 43.6504C88.5546 43.3109 89.26 43.1453 90.0509 43.1538C90.847 43.1647 91.6628 43.363 92.4985 43.7489C93.6746 44.292 94.4789 44.9763 94.9113 45.8018C95.3488 46.6297 95.5141 47.5321 95.4072 48.5091ZM107.807 46.1992L110.097 47.2568L109.409 62.8976L109.594 62.9833L121.054 52.3162L123.344 53.3738L116.027 69.2204L114.231 68.3915L119.791 56.3517L119.636 56.2803L109.125 66.0333L107.391 65.2329L107.999 50.9065L107.844 50.835L102.285 62.8748L100.489 62.0458L107.807 46.1992ZM122.995 72.7763C122.242 72.4285 121.624 71.971 121.141 71.4039C120.661 70.8315 120.365 70.1912 120.254 69.4828C120.146 68.7693 120.27 68.0256 120.627 67.2519C120.942 66.571 121.331 66.0809 121.794 65.7818C122.26 65.4775 122.773 65.3078 123.334 65.2726C123.895 65.2374 124.473 65.2855 125.07 65.4169C125.674 65.5456 126.268 65.7013 126.854 65.884C127.619 66.1246 128.236 66.3253 128.707 66.4861C129.184 66.6441 129.554 66.7115 129.815 66.6881C130.081 66.6671 130.282 66.5096 130.418 66.2156L130.447 66.1537C130.799 65.3903 130.864 64.7006 130.642 64.0846C130.424 63.4711 129.895 62.9702 129.054 62.5819C128.183 62.1794 127.411 62.0546 126.74 62.2077C126.068 62.3607 125.532 62.6074 125.131 62.9479L123.683 61.5285C124.326 60.9492 124.998 60.5775 125.7 60.4134C126.409 60.2464 127.108 60.2247 127.795 60.3483C128.491 60.4691 129.137 60.6676 129.736 60.9439C130.117 61.1202 130.535 61.3691 130.987 61.6906C131.447 62.0093 131.844 62.4152 132.18 62.9081C132.521 63.4034 132.716 64.0037 132.766 64.7089C132.816 65.4141 132.623 66.2386 132.187 67.1826L128.571 75.0131L126.745 74.1699L127.488 72.5604L127.395 72.5176C127.153 72.7183 126.819 72.899 126.394 73.0597C125.969 73.2203 125.47 73.293 124.895 73.2778C124.32 73.2626 123.686 73.0955 122.995 72.7763ZM124.031 71.2645C124.753 71.598 125.428 71.7372 126.054 71.6822C126.685 71.6295 127.231 71.4372 127.691 71.1051C128.156 70.7754 128.503 70.363 128.732 69.8678L129.503 68.1964C129.383 68.2536 129.174 68.2601 128.875 68.216C128.584 68.1691 128.255 68.0954 127.888 67.9949C127.529 67.8917 127.18 67.7869 126.841 67.6804C126.51 67.5712 126.24 67.4843 126.032 67.4196C125.529 67.2623 125.039 67.1581 124.562 67.1068C124.092 67.0527 123.668 67.104 123.289 67.2607C122.918 67.4146 122.625 67.7237 122.41 68.1879C122.117 68.8224 122.131 69.4105 122.45 69.9523C122.777 70.4912 123.304 70.9287 124.031 71.2645ZM137.032 70.2458L133.73 77.3954L131.904 76.5522L137.392 64.6672L139.156 65.4818L138.299 67.3388L138.454 67.4103C139.011 66.9354 139.658 66.6458 140.394 66.5416C141.133 66.4322 141.952 66.5848 142.849 66.9992C143.654 67.3708 144.282 67.861 144.733 68.4699C145.186 69.0735 145.427 69.7855 145.455 70.6058C145.485 71.4209 145.267 72.3339 144.8 73.345L141.313 80.8969L139.487 80.0537L142.917 72.6256C143.348 71.6919 143.442 70.8526 143.197 70.1077C142.955 69.3576 142.411 68.7873 141.565 68.3966C140.983 68.1275 140.403 68.0133 139.827 68.054C139.257 68.0972 138.728 68.3005 138.241 68.6639C137.754 69.0273 137.351 69.5546 137.032 70.2458ZM148.019 84.3313C147.266 83.9835 146.648 83.5261 146.165 82.9589C145.684 82.3866 145.389 81.7462 145.278 81.0378C145.169 80.3243 145.293 79.5807 145.651 78.8069C145.965 78.126 146.354 77.636 146.818 77.3368C147.284 77.0326 147.797 76.8628 148.358 76.8276C148.918 76.7924 149.497 76.8405 150.093 76.972C150.697 77.1007 151.292 77.2563 151.877 77.439C152.642 77.6796 153.26 77.8803 153.73 78.0411C154.208 78.1992 154.577 78.2665 154.838 78.2432C155.105 78.2222 155.306 78.0647 155.442 77.7706L155.47 77.7087C155.823 76.9453 155.888 76.2556 155.665 75.6397C155.448 75.0261 154.919 74.5252 154.078 74.137C153.206 73.7344 152.435 73.6096 151.763 73.7627C151.092 73.9157 150.555 74.1625 150.154 74.5029L148.707 73.0835C149.35 72.5043 150.022 72.1326 150.723 71.9684C151.433 71.8015 152.131 71.7798 152.819 71.9033C153.514 72.0241 154.161 72.2226 154.759 72.4989C155.141 72.6752 155.558 72.9241 156.01 73.2456C156.47 73.5644 156.868 73.9702 157.204 74.4631C157.544 74.9585 157.74 75.5587 157.79 76.2639C157.839 76.9691 157.646 77.7937 157.21 78.7377L153.595 86.5681L151.769 85.7249L152.512 84.1155L152.419 84.0726C152.176 84.2734 151.842 84.454 151.418 84.6147C150.993 84.7753 150.493 84.8481 149.918 84.8329C149.343 84.8177 148.71 84.6505 148.019 84.3313ZM149.055 82.8196C149.777 83.153 150.451 83.2922 151.077 83.2372C151.709 83.1845 152.254 82.9922 152.714 82.6601C153.18 82.3304 153.526 81.918 153.755 81.4228L154.527 79.7515C154.407 79.8086 154.197 79.8151 153.898 79.771C153.607 79.7241 153.278 79.6504 152.911 79.55C152.552 79.4467 152.203 79.3419 151.864 79.2355C151.533 79.1263 151.263 79.0393 151.056 78.9746C150.552 78.8174 150.062 78.7131 149.585 78.6618C149.116 78.6078 148.692 78.6591 148.313 78.8157C147.941 78.9696 147.648 79.2787 147.434 79.743C147.141 80.3775 147.154 80.9656 147.473 81.5073C147.8 82.0463 148.327 82.4837 149.055 82.8196ZM159.553 95.0269C158.67 94.6196 157.965 94.156 157.435 93.636C156.903 93.1212 156.51 92.583 156.256 92.0214C156.005 91.4674 155.851 90.9269 155.794 90.3999L157.72 90.0502C157.785 90.3431 157.88 90.6872 158.004 91.0825C158.126 91.4829 158.358 91.8875 158.701 92.2963C159.047 92.7127 159.579 93.0864 160.296 93.4175C161.255 93.8605 162.154 93.994 162.993 93.818C163.831 93.642 164.479 93.0587 164.937 92.0683L166.051 89.6542L165.897 89.5827C165.662 89.7375 165.348 89.9176 164.952 90.123C164.565 90.3258 164.084 90.4449 163.511 90.4805C162.945 90.5133 162.275 90.3511 161.501 89.9938C160.542 89.5508 159.785 88.926 159.231 88.1195C158.683 87.3154 158.386 86.3777 158.343 85.3062C158.305 84.2371 158.571 83.0836 159.143 81.8455C159.705 80.6282 160.409 79.667 161.254 78.9619C162.101 78.2518 163.021 77.8253 164.013 77.6827C165.008 77.5348 166.005 77.692 167.006 78.1541C167.78 78.5114 168.334 78.9238 168.669 79.3913C169.011 79.8561 169.229 80.3069 169.321 80.7439C169.421 81.178 169.49 81.5292 169.529 81.7975L169.715 81.8833L170.587 79.9953L172.351 80.8099L166.705 93.0354C166.234 94.0567 165.618 94.78 164.859 95.2053C164.102 95.6381 163.265 95.8243 162.348 95.7638C161.433 95.7108 160.502 95.4652 159.553 95.0269ZM162.506 88.4678C163.239 88.806 163.935 88.9242 164.595 88.8223C165.256 88.7205 165.863 88.4156 166.417 87.9078C166.97 87.3999 167.45 86.7076 167.854 85.8306C168.25 84.9743 168.47 84.1591 168.514 83.3849C168.559 82.6106 168.414 81.9211 168.08 81.3163C167.746 80.7114 167.208 80.2375 166.465 79.8945C165.691 79.5372 164.956 79.4355 164.259 79.5893C163.567 79.7455 162.94 80.0942 162.377 80.6354C161.82 81.179 161.355 81.8531 160.983 82.6578C160.602 83.4832 160.394 84.2726 160.359 85.0262C160.332 85.777 160.49 86.4509 160.834 87.0478C161.185 87.6419 161.743 88.1152 162.506 88.4678ZM175.074 96.787C173.929 96.2582 173.058 95.5493 172.461 94.6603C171.871 93.7685 171.563 92.7625 171.536 91.6422C171.516 90.5191 171.787 89.3489 172.349 88.1315C172.912 86.9142 173.629 85.9436 174.501 85.22C175.381 84.4935 176.341 84.0544 177.381 83.9026C178.429 83.7481 179.489 83.9185 180.562 84.414C181.181 84.6998 181.745 85.0852 182.253 85.5703C182.761 86.0553 183.156 86.6443 183.437 87.3372C183.72 88.025 183.833 88.8159 183.777 89.7099C183.721 90.604 183.437 91.6056 182.925 92.7146L182.568 93.4884L173.406 89.258L174.135 87.6795L181.44 91.0524C181.749 90.3818 181.891 89.7215 181.866 89.0715C181.846 88.4238 181.661 87.8347 181.312 87.304C180.967 86.7758 180.465 86.3592 179.805 86.0543C179.077 85.7185 178.365 85.6084 177.667 85.7242C176.976 85.8371 176.357 86.1144 175.809 86.556C175.261 86.9975 174.835 87.5459 174.533 88.201L174.047 89.2533C173.632 90.1509 173.436 90.9832 173.457 91.7503C173.486 92.5146 173.704 93.1879 174.111 93.7701C174.52 94.3472 175.094 94.806 175.831 95.1467C176.311 95.3682 176.775 95.5012 177.224 95.5457C177.681 95.5875 178.114 95.5372 178.524 95.3948C178.936 95.2473 179.315 95.0029 179.66 94.6617L181.196 95.9715C180.734 96.4841 180.179 96.8662 179.531 97.1177C178.885 97.364 178.181 97.4646 177.42 97.4196C176.661 97.3695 175.879 97.1586 175.074 96.787ZM182.887 100.095L188.375 88.2096L190.14 89.0242L189.282 90.8812L189.437 90.9527C189.977 90.4326 190.605 90.1245 191.319 90.0286C192.035 89.9276 192.78 90.0557 193.554 90.413C194.338 90.7751 194.908 91.2543 195.265 91.8509C195.629 92.4446 195.812 93.1266 195.813 93.8968L195.936 93.954C196.524 93.4807 197.206 93.204 197.981 93.124C198.759 93.0388 199.574 93.1928 200.425 93.5858C201.487 94.0765 202.203 94.8106 202.571 95.7881C202.942 96.7604 202.805 97.9455 202.159 99.3434L198.486 107.298L196.66 106.454L200.333 98.5002C200.738 97.6233 200.788 96.8858 200.482 96.2877C200.176 95.6896 199.698 95.2405 199.048 94.9403C198.213 94.5545 197.448 94.5083 196.756 94.8018C196.066 95.0902 195.543 95.6187 195.188 96.3873L191.615 104.125L189.758 103.267L193.517 95.1274C193.829 94.4516 193.861 93.8062 193.613 93.1911C193.368 92.5708 192.899 92.101 192.208 91.7818C191.734 91.5627 191.232 91.4842 190.702 91.5464C190.178 91.611 189.686 91.8093 189.226 92.1414C188.773 92.4707 188.413 92.9268 188.143 93.5097L184.713 100.938L182.887 100.095ZM206.694 111.388C205.549 110.859 204.677 110.15 204.08 109.261C203.491 108.369 203.183 107.363 203.155 106.243C203.136 105.12 203.407 103.95 203.969 102.733C204.531 101.515 205.249 100.545 206.121 99.821C207.001 99.0945 207.961 98.6554 209.001 98.5036C210.049 98.3491 211.109 98.5195 212.182 99.015C212.801 99.3008 213.365 99.6862 213.873 100.171C214.381 100.656 214.776 101.245 215.056 101.938C215.34 102.626 215.453 103.417 215.397 104.311C215.341 105.205 215.057 106.207 214.545 107.316L214.187 108.089L205.026 103.859L205.755 102.28L213.059 105.653C213.369 104.983 213.511 104.322 213.486 103.672C213.466 103.025 213.281 102.436 212.931 101.905C212.587 101.377 212.085 100.96 211.424 100.655C210.697 100.319 209.984 100.209 209.286 100.325C208.596 100.438 207.977 100.715 207.428 101.157C206.88 101.599 206.455 102.147 206.153 102.802L205.667 103.854C205.252 104.752 205.056 105.584 205.077 106.351C205.106 107.116 205.324 107.789 205.731 108.371C206.14 108.948 206.714 109.407 207.451 109.748C207.931 109.969 208.395 110.102 208.844 110.147C209.3 110.189 209.734 110.138 210.144 109.996C210.556 109.848 210.935 109.604 211.28 109.263L212.816 110.573C212.353 111.085 211.798 111.467 211.15 111.719C210.505 111.965 209.801 112.066 209.04 112.021C208.28 111.97 207.498 111.76 206.694 111.388ZM219.635 108.389L216.333 115.539L214.507 114.696L219.995 102.811L221.759 103.625L220.902 105.482L221.057 105.554C221.614 105.079 222.261 104.789 222.997 104.685C223.736 104.576 224.554 104.728 225.452 105.143C226.257 105.514 226.885 106.004 227.336 106.613C227.789 107.217 228.03 107.929 228.058 108.749C228.088 109.564 227.87 110.477 227.403 111.488L223.916 119.04L222.09 118.197L225.52 110.769C225.951 109.835 226.045 108.996 225.8 108.251C225.558 107.501 225.014 106.931 224.168 106.54C223.585 106.271 223.006 106.157 222.43 106.197C221.86 106.241 221.331 106.444 220.844 106.807C220.357 107.171 219.954 107.698 219.635 108.389ZM237.91 111.083L237.195 112.63L231.036 109.786L231.751 108.239L237.91 111.083ZM234.86 106.22L236.687 107.064L231.456 118.391C231.218 118.907 231.114 119.329 231.144 119.656C231.182 119.98 231.3 120.241 231.496 120.438C231.701 120.632 231.937 120.792 232.205 120.915C232.406 121.008 232.576 121.074 232.715 121.113C232.856 121.147 232.968 121.174 233.053 121.194L232.667 123.006C232.522 122.995 232.327 122.962 232.084 122.906C231.838 122.855 231.545 122.751 231.205 122.594C230.689 122.356 230.235 122.011 229.842 121.561C229.454 121.113 229.203 120.587 229.087 119.983C228.977 119.381 229.082 118.735 229.401 118.043L234.86 106.22Z" fill="black"/>
</svg>
