<svg width="49" height="55" viewBox="0 0 49 55" fill="none" xmlns="http://www.w3.org/2000/svg">
<path d="M1 10.9244L24.4992 22.1037V54.1584L1 41.3821V10.9244Z" fill="#DEDEDE"/>
<path d="M24.4992 22.1037L1 10.9244L24.4992 1L48.2266 10.9244L24.4992 22.1037Z" fill="#DEDEDE"/>
<path d="M24.4992 22.1037L48.2266 10.9244V41.3821L24.4992 54.1584V22.1037Z" fill="#DEDEDE"/>
<path d="M1 10.9244L24.4992 22.1037M1 10.9244V41.3821L24.4992 54.1584M1 10.9244L24.4992 1L48.2266 10.9244M24.4992 22.1037V54.1584M24.4992 22.1037L48.2266 10.9244M24.4992 54.1584L48.2266 41.3821V10.9244" stroke="black"/>
<path d="M17.49 13.4805C18.7482 14.5913 20.904 15.8764 23.449 16.2607C26.0325 16.6507 29.038 16.1175 31.9656 13.4814V9.13672H32.9656V13.9229L32.8064 14.0713C29.5939 17.0511 26.2146 17.6891 23.2996 17.249C20.4099 16.8127 17.9991 15.3224 16.6501 14.0713L16.49 13.9229V9.13672H17.49V13.4805Z" fill="black"/>
<path d="M24.728 4.00781C26.9804 4.00781 28.9958 4.57984 30.4321 5.47754C31.8754 6.37962 32.6694 7.56194 32.6694 8.78418C32.6692 10.0063 31.8753 11.1888 30.4321 12.0908C28.9958 12.9885 26.9803 13.5596 24.728 13.5596C22.4758 13.5596 20.4602 12.9885 19.0239 12.0908C17.5807 11.1888 16.7868 10.0063 16.7866 8.78418C16.7866 7.56196 17.5808 6.37962 19.0239 5.47754C20.4602 4.57985 22.4757 4.00782 24.728 4.00781Z" fill="#D9D9D9" stroke="black"/>
</svg>
